# xmcd CD database file
#
# Track frame offsets:
#	150
#	30675
#	73125
#	98550
#	135112
#	163875
#	199900
#	222225
#	242312
#	256925
#	274650
#
# Disc length: 3767 seconds
#
# Revision: 0
# Processed by: cddbd v1.5.2PL0 Copyright (c) Steve Scherf et al.
# Submitted via: CDex 1.70beta2
#
DISCID=950eb50b
DTITLE=Karl Ratzer und Art Farmer - Waltz for Ann
DYEAR=1991
DGENRE=Jazz
TTITLE0=Sageways
TTITLE1=For Martin
TTITLE2=Karl Call
TTITLE3=Whats New
TTITLE4=What i think of you
TTITLE5=Waltz for Ann
TTITLE6=Small Talk
TTITLE7=My funny Valentine
TTITLE8=Hands and Feet
TTITLE9=Infant Search
TTITLE10=My shining Hour
EXTD=YEAR: 1991
EXTT0=
EXTT1=
EXTT2=
EXTT3=
EXTT4=
EXTT5=
EXTT6=
EXTT7=
EXTT8=
EXTT9=
EXTT10=
PLAYORDER=
